<?xml version="1.0" ?><svg id="Layer_1" style="enable-background:new 0 0 1024 1024;" version="1.1" viewBox="0 0 1024 1024" xml:space="preserve" xmlns="http://www.w3.org/2000/svg" xmlns:xlink="http://www.w3.org/1999/xlink"><g id="XMLID_318_"><path d="M535,534.4H489c-8.1,0-14.6-6.6-14.6-14.6v-53.8h-53.8c-8.1,0-14.6-6.6-14.6-14.6v-45.9   c0-8.1,6.6-14.6,14.6-14.6h53.8V337c0-8.1,6.6-14.6,14.6-14.6H535c8.1,0,14.6,6.6,14.6,14.6v53.8h53.8c8.1,0,14.6,6.6,14.6,14.6   v45.9c0,8.1-6.6,14.6-14.6,14.6h-53.8v53.8C549.6,527.8,543,534.4,535,534.4z M494.4,514.4h35.2v-68.4H598v-35.1h-68.4v-68.4h-35.2   v68.4H426v35.1h68.4V514.4z" id="XMLID_25_"/><rect height="20" id="XMLID_24_" width="124.7" x="201.1" y="464.5"/><rect height="20" id="XMLID_23_" width="124.7" x="201.1" y="567.4"/><rect height="20" id="XMLID_22_" width="124.7" x="201.1" y="670.4"/><rect height="20" id="XMLID_21_" width="124.7" x="698.2" y="464.5"/><rect height="20" id="XMLID_20_" width="124.7" x="698.2" y="567.4"/><rect height="20" id="XMLID_19_" width="124.7" x="698.2" y="670.4"/><path d="M698.2,779H325.8c-5.5,0-10-4.5-10-10V255c0-5.5,4.5-10,10-10h372.4c5.5,0,10,4.5,10,10v514   C708.2,774.5,703.7,779,698.2,779z M335.8,759h352.4V265H335.8V759z" id="XMLID_16_"/><path d="M325.8,779H141.1c-5.5,0-10-4.5-10-10V385.9c0-5.5,4.5-10,10-10h184.7c5.5,0,10,4.5,10,10V769   C335.8,774.5,331.3,779,325.8,779z M151.1,759h164.7V395.9H151.1V759z" id="XMLID_13_"/><path d="M882.9,779H698.2c-5.5,0-10-4.5-10-10V385.9c0-5.5,4.5-10,10-10h184.7c5.5,0,10,4.5,10,10V769   C892.9,774.5,888.4,779,882.9,779z M708.2,759h164.7V395.9H708.2V759z" id="XMLID_10_"/><rect height="20" id="XMLID_9_" width="214.7" x="111.1" y="375.9"/><rect height="20" id="XMLID_8_" width="214.7" x="698.2" y="375.9"/><rect height="20" id="XMLID_7_" width="432.4" x="295.8" y="245"/><rect height="20" id="XMLID_6_" width="801.7" x="111.1" y="759"/><path d="M603,779H421c-5.5,0-10-4.5-10-10V601.8c0-5.5,4.5-10,10-10h182c5.5,0,10,4.5,10,10V769   C613,774.5,608.5,779,603,779z M431,759h162V611.8H431V759z" id="XMLID_3_"/><rect height="20" id="XMLID_2_" width="240" x="392" y="591.8"/></g></svg>