<?xml version='1.0' encoding='utf-8'?>
<!DOCTYPE svg PUBLIC '-//W3C//DTD SVG 1.1//EN' 'http://www.w3.org/Graphics/SVG/1.1/DTD/svg11.dtd'>
<svg version="1.1" xmlns="http://www.w3.org/2000/svg" viewBox="0 0 512 512" xmlns:xlink="http://www.w3.org/1999/xlink" enable-background="new 0 0 512 512">
  <g>
    <g>
      <path d="m132,253c66.7,0 121-54.3 121-121s-54.3-121-121-121-121,54.3-121,121 54.3,121 121,121zm80-121c0,44.1-35.9,80-80,80-14.7,0-28.4-4-40.2-10.9l109.3-109.3c6.9,11.8 10.9,25.5 10.9,40.2zm-80-80c14.7,0 28.4,4 40.2,10.9l-109.3,109.3c-6.9-11.8-10.9-25.5-10.9-40.2 0-44.1 35.9-80 80-80z"/>
      <path d="m380,259c-50,0-92.9,30.4-111.4,73.7h-179.4c-43.1,0-78.2,37.8-78.2,84.2 0,46.4 35.1,84.2 78.2,84.2h294.8c0.9,0 1.7-0.1 2.6-0.2 63.6-3.5 114.4-56.4 114.4-120.9 0-66.7-54.3-121-121-121zm-290.8,201.2c-20.6,0-37.3-19.4-37.3-43.3 0-23.9 16.7-43.3 37.3-43.3h170c-0.1,2.1-0.2,4.3-0.2,6.5 0,30.7 11.5,58.8 30.5,80.2h-200.3zm290.8-.3c-44.1,0-80-35.9-80-80 0-14.7 4-28.4 10.9-40.2l109.3,109.4c-11.8,6.8-25.6,10.8-40.2,10.8zm69.1-39.8l-109.4-109.3c11.9-6.9 25.6-10.9 40.3-10.9 44.1,0 80,35.9 80,80 0,14.6-4,28.4-10.9,40.2z"/>
    </g>
  </g>
</svg>
